<?xml version="1.0" encoding="UTF-8"?>
<svg xmlns="http://www.w3.org/2000/svg" xmlns:xlink="http://www.w3.org/1999/xlink" width="130pt" height="130pt" viewBox="0 0 130 130" version="1.1">
<g id="surface1">
<path style=" stroke:none;fill-rule:nonzero;fill:rgb(16.470588%,55.686275%,90.196078%);fill-opacity:1;" d="M 34.4375 60.777344 L 34.4375 53.878906 C 34.4375 53.214844 34.898438 52.671875 35.460938 52.671875 L 47.601562 52.671875 C 48.160156 52.671875 48.621094 53.230469 48.621094 53.878906 L 48.621094 60.777344 "/>
<path style=" stroke:none;fill-rule:nonzero;fill:rgb(0%,0%,0%);fill-opacity:1;" d="M 48.621094 62.800781 C 47.503906 62.800781 46.59375 61.894531 46.59375 60.777344 L 46.59375 54.699219 L 36.464844 54.699219 L 36.464844 60.777344 C 36.464844 61.894531 35.558594 62.800781 34.4375 62.800781 C 33.320312 62.800781 32.414062 61.894531 32.414062 60.777344 L 32.414062 53.878906 C 32.414062 52.097656 33.78125 50.644531 35.460938 50.644531 L 47.597656 50.644531 C 49.277344 50.644531 50.644531 52.097656 50.644531 53.878906 L 50.644531 60.777344 C 50.644531 61.894531 49.738281 62.800781 48.621094 62.800781 Z M 48.621094 62.800781 "/>
<path style=" stroke:none;fill-rule:nonzero;fill:rgb(16.470588%,55.686275%,90.196078%);fill-opacity:1;" d="M 12.15625 60.777344 L 12.15625 53.878906 C 12.15625 53.214844 12.613281 52.671875 13.179688 52.671875 L 25.316406 52.671875 C 25.875 52.671875 26.335938 53.230469 26.335938 53.878906 L 26.335938 60.777344 "/>
<path style=" stroke:none;fill-rule:nonzero;fill:rgb(0%,0%,0%);fill-opacity:1;" d="M 26.335938 62.800781 C 25.21875 62.800781 24.308594 61.894531 24.308594 60.777344 L 24.308594 54.699219 L 14.179688 54.699219 L 14.179688 60.777344 C 14.179688 61.894531 13.273438 62.800781 12.15625 62.800781 C 11.039062 62.800781 10.128906 61.894531 10.128906 60.777344 L 10.128906 53.878906 C 10.128906 52.097656 11.496094 50.644531 13.179688 50.644531 L 25.316406 50.644531 C 26.996094 50.644531 28.363281 52.097656 28.363281 53.878906 L 28.363281 60.777344 C 28.363281 61.894531 27.453125 62.800781 26.335938 62.800781 Z M 26.335938 62.800781 "/>
<path style=" stroke:none;fill-rule:nonzero;fill:rgb(16.470588%,55.686275%,90.196078%);fill-opacity:1;" d="M 58.75 60.777344 L 58.75 53.878906 C 58.75 53.214844 59.207031 52.671875 59.769531 52.671875 L 71.910156 52.671875 C 72.472656 52.671875 72.929688 53.230469 72.929688 53.878906 L 72.929688 60.777344 "/>
<path style=" stroke:none;fill-rule:nonzero;fill:rgb(0%,0%,0%);fill-opacity:1;" d="M 72.929688 62.800781 C 71.8125 62.800781 70.90625 61.894531 70.90625 60.777344 L 70.90625 54.699219 L 60.777344 54.699219 L 60.777344 60.777344 C 60.777344 61.894531 59.867188 62.800781 58.75 62.800781 C 57.632812 62.800781 56.722656 61.894531 56.722656 60.777344 L 56.722656 53.878906 C 56.722656 52.097656 58.089844 50.644531 59.769531 50.644531 L 71.910156 50.644531 C 73.589844 50.644531 74.957031 52.097656 74.957031 53.878906 L 74.957031 60.777344 C 74.957031 61.894531 74.046875 62.800781 72.929688 62.800781 Z M 72.929688 62.800781 "/>
<path style=" stroke:none;fill-rule:nonzero;fill:rgb(98.431373%,67.843137%,29.019608%);fill-opacity:1;" d="M 105.34375 97.242188 L 105.34375 90.34375 C 105.34375 89.679688 105.804688 89.136719 106.363281 89.136719 L 118.503906 89.136719 C 119.066406 89.136719 119.523438 89.691406 119.523438 90.34375 L 119.523438 97.242188 "/>
<path style=" stroke:none;fill-rule:nonzero;fill:rgb(0%,0%,0%);fill-opacity:1;" d="M 119.523438 99.265625 C 118.402344 99.265625 117.5 98.359375 117.5 97.242188 L 117.5 91.164062 L 107.371094 91.164062 L 107.371094 97.242188 C 107.371094 98.359375 106.460938 99.265625 105.34375 99.265625 C 104.222656 99.265625 103.316406 98.359375 103.316406 97.242188 L 103.316406 90.34375 C 103.316406 88.5625 104.6875 87.113281 106.363281 87.113281 L 118.503906 87.113281 C 120.183594 87.113281 121.550781 88.5625 121.550781 90.34375 L 121.550781 97.242188 C 121.550781 98.359375 120.644531 99.265625 119.523438 99.265625 Z M 119.523438 99.265625 "/>
<path style=" stroke:none;fill-rule:nonzero;fill:rgb(99.607843%,85.490196%,30.980392%);fill-opacity:1;" d="M 50.460938 97.242188 L 125.785156 97.242188 C 126.800781 97.242188 127.628906 98.070312 127.628906 99.09375 L 127.628906 125.773438 C 127.628906 126.792969 126.800781 127.628906 125.785156 127.628906 L 50.460938 127.628906 C 49.449219 127.628906 48.621094 126.792969 48.621094 125.773438 L 48.621094 99.09375 C 48.621094 98.070312 49.449219 97.242188 50.460938 97.242188 Z M 50.460938 97.242188 "/>
<path style=" stroke:none;fill-rule:nonzero;fill:rgb(0%,0%,0%);fill-opacity:1;" d="M 125.785156 129.652344 L 50.460938 129.652344 C 48.328125 129.652344 46.59375 127.910156 46.59375 125.773438 L 46.59375 99.09375 C 46.59375 96.957031 48.328125 95.214844 50.460938 95.214844 L 125.785156 95.214844 C 127.917969 95.214844 129.652344 96.957031 129.652344 99.09375 L 129.652344 125.773438 C 129.652344 127.914062 127.917969 129.652344 125.785156 129.652344 Z M 50.644531 125.601562 L 125.601562 125.601562 L 125.601562 99.265625 L 50.644531 99.265625 Z M 125.785156 99.265625 L 125.804688 99.265625 Z M 125.785156 99.265625 "/>
<path style=" stroke:none;fill-rule:nonzero;fill:rgb(16.862745%,73.333333%,91.372549%);fill-opacity:1;" d="M 3.871094 60.777344 L 79.195312 60.777344 C 80.207031 60.777344 81.035156 61.605469 81.035156 62.628906 L 81.035156 89.308594 C 81.035156 90.328125 80.207031 91.164062 79.195312 91.164062 L 3.871094 91.164062 C 2.851562 91.164062 2.027344 90.328125 2.027344 89.308594 L 2.027344 62.628906 C 2.027344 61.605469 2.851562 60.777344 3.871094 60.777344 Z M 3.871094 60.777344 "/>
<path style=" stroke:none;fill-rule:nonzero;fill:rgb(0%,0%,0%);fill-opacity:1;" d="M 79.191406 93.1875 L 3.867188 93.1875 C 1.734375 93.1875 0 91.449219 0 89.308594 L 0 62.628906 C 0 60.492188 1.734375 58.75 3.867188 58.75 L 79.191406 58.75 C 81.324219 58.75 83.058594 60.492188 83.058594 62.628906 L 83.058594 89.308594 C 83.058594 91.449219 81.324219 93.1875 79.191406 93.1875 Z M 4.050781 89.136719 L 79.007812 89.136719 L 79.007812 62.800781 L 4.050781 62.800781 Z M 79.191406 62.800781 L 79.210938 62.800781 Z M 79.191406 62.800781 "/>
<path style=" stroke:none;fill-rule:nonzero;fill:rgb(98.431373%,67.843137%,29.019608%);fill-opacity:1;" d="M 3.820312 97.242188 L 38.722656 97.242188 C 39.710938 97.242188 40.515625 98.078125 40.515625 99.09375 L 40.515625 125.773438 C 40.515625 126.792969 39.707031 127.628906 38.722656 127.628906 L 3.820312 127.628906 C 2.835938 127.628906 2.027344 126.792969 2.027344 125.773438 L 2.027344 99.09375 C 2.027344 98.070312 2.832031 97.242188 3.820312 97.242188 Z M 3.820312 97.242188 "/>
<path style=" stroke:none;fill-rule:nonzero;fill:rgb(0%,0%,0%);fill-opacity:1;" d="M 38.722656 129.652344 L 3.820312 129.652344 C 1.714844 129.652344 0 127.910156 0 125.773438 L 0 99.09375 C 0 96.957031 1.714844 95.214844 3.820312 95.214844 L 38.722656 95.214844 C 40.832031 95.214844 42.542969 96.957031 42.542969 99.09375 L 42.542969 125.773438 C 42.542969 127.914062 40.832031 129.652344 38.722656 129.652344 Z M 4.050781 125.601562 L 38.492188 125.601562 L 38.492188 99.265625 L 4.050781 99.265625 Z M 38.722656 99.265625 L 38.746094 99.265625 Z M 38.722656 99.265625 "/>
<path style=" stroke:none;fill-rule:nonzero;fill:rgb(92.941176%,32.941176%,50.588235%);fill-opacity:1;" d="M 88.878906 20.785156 L 92.214844 14.816406 C 92.535156 14.238281 93.210938 14.015625 93.710938 14.316406 L 104.589844 20.804688 C 105.089844 21.105469 105.234375 21.832031 104.921875 22.394531 L 101.585938 28.363281 "/>
<path style=" stroke:none;fill-rule:nonzero;fill:rgb(0%,0%,0%);fill-opacity:1;" d="M 101.582031 30.390625 C 101.25 30.390625 100.90625 30.308594 100.597656 30.132812 C 99.617188 29.585938 99.269531 28.351562 99.816406 27.375 L 102.773438 22.082031 L 93.550781 16.578125 L 90.648438 21.769531 C 90.101562 22.75 88.867188 23.097656 87.890625 22.554688 C 86.914062 22.007812 86.566406 20.773438 87.113281 19.796875 L 90.445312 13.828125 C 90.871094 13.054688 91.59375 12.484375 92.429688 12.261719 C 93.222656 12.046875 94.046875 12.160156 94.746094 12.574219 L 105.628906 19.0625 C 107.058594 19.925781 107.535156 21.859375 106.691406 23.378906 L 103.351562 29.351562 C 102.980469 30.015625 102.292969 30.390625 101.582031 30.390625 Z M 101.582031 30.390625 "/>
<path style=" stroke:none;fill-rule:nonzero;fill:rgb(92.941176%,32.941176%,50.588235%);fill-opacity:1;" d="M 68.621094 8.625 L 71.957031 2.660156 C 72.277344 2.085938 72.949219 1.859375 73.453125 2.160156 L 84.332031 8.648438 C 84.832031 8.949219 84.972656 9.675781 84.660156 10.238281 L 81.324219 16.210938 "/>
<path style=" stroke:none;fill-rule:nonzero;fill:rgb(0%,0%,0%);fill-opacity:1;" d="M 81.324219 18.234375 C 80.988281 18.234375 80.648438 18.152344 80.339844 17.976562 C 79.359375 17.429688 79.011719 16.195312 79.554688 15.222656 L 82.515625 9.925781 L 73.292969 4.421875 L 70.386719 9.617188 C 69.84375 10.59375 68.609375 10.941406 67.632812 10.394531 C 66.65625 9.847656 66.304688 8.617188 66.851562 7.636719 L 70.1875 1.671875 C 70.621094 0.898438 71.34375 0.328125 72.175781 0.105469 C 72.972656 -0.109375 73.792969 0.00390625 74.492188 0.421875 L 85.371094 6.910156 C 86.804688 7.765625 87.28125 9.699219 86.433594 11.222656 L 83.09375 17.195312 C 82.722656 17.859375 82.035156 18.234375 81.324219 18.234375 Z M 83.292969 10.390625 C 83.292969 10.394531 83.292969 10.394531 83.296875 10.394531 Z M 83.292969 10.390625 "/>
<path style=" stroke:none;fill-rule:nonzero;fill:rgb(92.941176%,32.941176%,50.588235%);fill-opacity:1;" d="M 109.140625 32.941406 L 112.472656 26.96875 C 112.792969 26.394531 113.46875 26.171875 113.972656 26.472656 L 124.847656 32.960938 C 125.347656 33.261719 125.492188 33.984375 125.175781 34.550781 L 121.839844 40.515625 "/>
<path style=" stroke:none;fill-rule:nonzero;fill:rgb(0%,0%,0%);fill-opacity:1;" d="M 121.839844 42.542969 C 121.507812 42.542969 121.164062 42.460938 120.855469 42.285156 C 119.875 41.742188 119.527344 40.507812 120.070312 39.53125 L 123.03125 34.238281 L 113.808594 28.734375 L 110.90625 33.925781 C 110.363281 34.90625 109.125 35.253906 108.148438 34.710938 C 107.175781 34.164062 106.824219 32.925781 107.371094 31.949219 L 110.703125 25.980469 C 111.132812 25.210938 111.855469 24.640625 112.6875 24.417969 C 113.484375 24.203125 114.304688 24.3125 115.003906 24.730469 L 125.882812 31.222656 C 127.320312 32.074219 127.796875 34.015625 126.941406 35.539062 L 123.609375 41.507812 C 123.238281 42.171875 122.550781 42.542969 121.839844 42.542969 Z M 121.839844 42.542969 "/>
<path style=" stroke:none;fill-rule:nonzero;fill:rgb(97.254902%,49.411765%,63.137255%);fill-opacity:1;" d="M 62.382812 6.320312 L 126.71875 43.105469 C 127.585938 43.601562 127.886719 44.707031 127.386719 45.566406 L 114.320312 67.980469 C 113.820312 68.839844 112.703125 69.136719 111.839844 68.640625 L 47.503906 31.851562 C 46.636719 31.355469 46.335938 30.25 46.835938 29.394531 L 59.90625 6.980469 C 60.402344 6.117188 61.519531 5.824219 62.382812 6.320312 Z M 62.382812 6.320312 "/>
<path style=" stroke:none;fill-rule:nonzero;fill:rgb(0%,0%,0%);fill-opacity:1;" d="M 112.734375 70.90625 C 112.089844 70.90625 111.433594 70.742188 110.835938 70.402344 L 46.496094 33.609375 C 45.601562 33.09375 44.964844 32.269531 44.695312 31.273438 C 44.433594 30.28125 44.570312 29.25 45.09375 28.367188 L 58.152344 5.957031 C 59.210938 4.140625 61.5625 3.515625 63.390625 4.5625 L 127.726562 41.351562 C 128.617188 41.859375 129.253906 42.6875 129.523438 43.679688 C 129.785156 44.671875 129.652344 45.703125 129.132812 46.585938 L 116.066406 69 C 115.359375 70.222656 114.0625 70.90625 112.734375 70.90625 Z M 48.707031 30.207031 L 112.671875 66.785156 L 125.515625 44.75 L 61.546875 8.175781 Z M 125.714844 44.867188 L 125.734375 44.867188 Z M 48.589844 30.414062 Z M 61.375 8.078125 Z M 61.375 8.078125 "/>
</g>
</svg>
