<?xml version="1.0" encoding="UTF-8"?>
<svg xmlns="http://www.w3.org/2000/svg" xmlns:xlink="http://www.w3.org/1999/xlink" width="130pt" height="130pt" viewBox="0 0 130 130" version="1.1">
<g id="surface1">
<path style=" stroke:none;fill-rule:nonzero;fill:rgb(98.431373%,50.980392%,46.27451%);fill-opacity:1;" d="M 7.53125 98.867188 C 6.601562 98.867188 5.839844 99.625 5.839844 100.542969 L 5.839844 128.328125 C 5.839844 129.246094 6.601562 130 7.53125 130 L 35.570312 130 C 36.496094 130 37.257812 129.246094 37.257812 128.328125 L 37.257812 98.867188 Z M 7.53125 98.867188 "/>
<path style=" stroke:none;fill-rule:nonzero;fill:rgb(63.529412%,97.647059%,97.647059%);fill-opacity:1;" d="M 62.304688 87.496094 C 62.304688 83 63.613281 78.910156 66.066406 75.539062 C 61.933594 77.476562 57.316406 78.074219 52.878906 77.335938 L 52.878906 88.625 C 56.015625 88.964844 59.191406 88.871094 62.304688 88.335938 Z M 62.304688 87.496094 "/>
<path style=" stroke:none;fill-rule:nonzero;fill:rgb(28.235294%,89.803922%,88.235294%);fill-opacity:1;" d="M 100.6875 70.226562 C 97.214844 71.878906 93.351562 72.796875 89.320312 72.796875 L 81.449219 72.796875 C 77.523438 72.796875 73.8125 72.109375 70.484375 70.816406 C 65.328125 74.523438 62.050781 80.277344 62.050781 87.496094 L 62.050781 91.066406 L 63.09375 91.171875 L 62.964844 90.792969 L 62.769531 90.277344 C 62.589844 89.800781 62.609375 89.28125 62.816406 88.820312 C 63.023438 88.355469 63.402344 88 63.878906 87.816406 L 64.429688 87.613281 C 64.648438 87.53125 64.875 87.488281 65.105469 87.488281 C 65.890625 87.488281 66.609375 87.984375 66.886719 88.71875 L 68.988281 94.210938 L 69.007812 94.234375 C 69.238281 94.566406 69.441406 94.914062 69.609375 95.277344 L 69.664062 95.386719 L 69.777344 95.414062 C 71.460938 95.839844 73.195312 96.054688 74.9375 96.054688 C 82.953125 96.054688 90.414062 91.449219 93.9375 84.320312 C 94.796875 82.582031 96.542969 81.5 98.5 81.5 C 99.265625 81.5 100.007812 81.671875 100.703125 82.007812 C 101.917969 82.59375 102.828125 83.613281 103.261719 84.882812 C 103.691406 86.144531 103.605469 87.5 103.011719 88.703125 C 100.390625 94.007812 96.320312 98.4375 91.246094 101.507812 C 86.304688 104.5 80.644531 106.078125 74.875 106.078125 C 72.699219 106.078125 70.535156 105.847656 68.417969 105.398438 L 68.417969 115.671875 L 72.90625 115.671875 L 72.929688 115.445312 C 73.234375 112.789062 75.503906 110.78125 78.207031 110.78125 C 80.195312 110.78125 82.003906 111.871094 82.921875 113.625 L 83.148438 114.050781 L 83.371094 113.625 C 84.292969 111.871094 86.101562 110.78125 88.089844 110.78125 C 90.792969 110.78125 93.058594 112.789062 93.367188 115.445312 L 93.390625 115.671875 L 109.824219 115.671875 L 109.824219 87.234375 C 109.824219 79.691406 106.25 73.832031 100.6875 70.226562 Z M 100.6875 70.226562 "/>
<path style=" stroke:none;fill-rule:nonzero;fill:rgb(25.490196%,80.784314%,79.215686%);fill-opacity:1;" d="M 63.09375 91.171875 L 62.964844 90.792969 L 62.769531 90.277344 C 62.589844 89.800781 62.609375 89.28125 62.816406 88.820312 C 63.023438 88.355469 63.402344 88 63.878906 87.816406 L 64.429688 87.613281 C 64.648438 87.53125 64.875 87.488281 65.105469 87.488281 C 65.890625 87.488281 66.609375 87.984375 66.886719 88.71875 L 68.988281 94.210938 L 69.007812 94.234375 C 69.238281 94.566406 69.441406 94.914062 69.609375 95.277344 L 69.664062 95.386719 L 69.777344 95.414062 C 69.878906 95.441406 69.984375 95.464844 70.085938 95.488281 L 70.085938 87.496094 C 70.085938 81.246094 72.542969 76.09375 76.550781 72.417969 C 74.421875 72.09375 72.390625 71.554688 70.484375 70.816406 C 65.328125 74.523438 62.050781 80.277344 62.050781 87.496094 L 62.050781 91.066406 Z M 63.09375 91.171875 "/>
<path style=" stroke:none;fill-rule:nonzero;fill:rgb(63.529412%,97.647059%,97.647059%);fill-opacity:1;" d="M 82.777344 116.046875 C 82.777344 115.242188 82.960938 114.480469 83.292969 113.796875 C 82.421875 111.871094 80.472656 110.527344 78.207031 110.527344 C 75.34375 110.527344 72.992188 112.667969 72.675781 115.417969 L 68.417969 115.417969 L 68.417969 128.324219 C 68.417969 129.246094 67.65625 130 66.730469 130 L 78.585938 130 L 78.585938 129.980469 C 80.691406 129.839844 82.472656 128.539062 83.289062 126.722656 C 82.960938 126.039062 82.777344 125.28125 82.777344 124.484375 Z M 82.777344 116.046875 "/>
<path style=" stroke:none;fill-rule:nonzero;fill:rgb(63.529412%,97.647059%,97.647059%);fill-opacity:1;" d="M 87.710938 129.980469 L 87.710938 130 L 110.277344 130 C 114.339844 130 117.632812 126.734375 117.632812 122.707031 C 117.632812 118.679688 114.339844 115.417969 110.277344 115.417969 L 93.617188 115.417969 C 93.300781 112.667969 90.949219 110.527344 88.089844 110.527344 C 85.015625 110.527344 82.523438 113 82.523438 116.046875 L 82.523438 124.484375 C 82.523438 127.40625 84.8125 129.785156 87.710938 129.980469 Z M 87.710938 129.980469 "/>
<path style=" stroke:none;fill-rule:nonzero;fill:rgb(56.862745%,87.843137%,87.843137%);fill-opacity:1;" d="M 90.488281 124.484375 L 90.488281 116.046875 C 90.488281 114.546875 91.097656 113.191406 92.070312 112.199219 C 91.0625 111.171875 89.652344 110.527344 88.089844 110.527344 C 85.015625 110.527344 82.523438 113 82.523438 116.046875 L 82.523438 124.484375 C 82.523438 127.40625 84.8125 129.789062 87.710938 129.980469 L 87.710938 130 L 95.679688 130 L 95.679688 129.980469 C 92.78125 129.785156 90.488281 127.40625 90.488281 124.484375 Z M 90.488281 124.484375 "/>
<path style=" stroke:none;fill-rule:nonzero;fill:rgb(100%,78.823529%,52.941176%);fill-opacity:1;" d="M 89.320312 72.796875 L 81.449219 72.796875 C 80.21875 72.796875 79.019531 72.722656 77.835938 72.589844 L 77.835938 72.8125 C 77.835938 76.296875 80.6875 79.117188 84.199219 79.117188 C 87.714844 79.117188 90.566406 76.296875 90.566406 72.8125 L 90.566406 72.761719 C 90.152344 72.78125 89.734375 72.796875 89.320312 72.796875 Z M 89.320312 72.796875 "/>
<path style=" stroke:none;fill-rule:nonzero;fill:rgb(100%,83.529412%,70.196078%);fill-opacity:1;" d="M 116.117188 32.257812 C 116.082031 32.257812 116.046875 32.261719 116.011719 32.261719 L 116.011719 28.542969 C 116.011719 28.257812 116.003906 27.976562 115.996094 27.691406 C 115.429688 28.144531 114.785156 28.5 114.066406 28.757812 C 112.476562 29.316406 110.921875 29.601562 109.449219 29.601562 C 101.457031 29.601562 97.839844 21.191406 97.804688 21.105469 L 97.5625 20.53125 L 97.332031 21.109375 C 97.289062 21.21875 92.90625 32.015625 85.582031 32.015625 C 84.78125 32.015625 83.957031 31.886719 83.136719 31.628906 C 79.664062 30.535156 78.515625 27.894531 79.726562 23.777344 L 79.265625 23.578125 C 77.011719 27.332031 73.558594 31.808594 69.894531 31.808594 C 69.464844 31.808594 69.039062 31.746094 68.621094 31.625 C 67.257812 31.226562 66.285156 30.433594 65.722656 29.261719 C 64.804688 27.355469 65.023438 24.453125 66.328125 21.300781 L 65.867188 21.09375 C 62.832031 27.457031 59.601562 30.546875 55.996094 30.546875 C 55.589844 30.546875 55.171875 30.503906 54.757812 30.421875 L 54.757812 46.449219 C 54.757812 63.722656 66.707031 73.046875 81.449219 73.046875 L 89.316406 73.046875 C 101.695312 73.046875 112.101562 64.652344 115.125 53.265625 C 115.449219 53.316406 115.78125 53.34375 116.117188 53.34375 C 120.691406 53.34375 124.394531 48.625 124.394531 42.804688 C 124.394531 36.980469 120.691406 32.257812 116.117188 32.257812 Z M 116.117188 32.257812 "/>
<path style=" stroke:none;fill-rule:nonzero;fill:rgb(89.803922%,74.901961%,63.137255%);fill-opacity:1;" d="M 62.761719 46.449219 L 62.761719 28.542969 C 62.761719 27.761719 62.800781 26.992188 62.863281 26.226562 C 60.710938 29.125 58.441406 30.546875 55.996094 30.546875 C 55.589844 30.546875 55.171875 30.503906 54.757812 30.421875 L 54.757812 46.449219 C 54.757812 63.722656 66.707031 73.046875 81.449219 73.046875 L 89.320312 73.046875 C 89.332031 73.046875 89.347656 73.046875 89.359375 73.046875 C 74.664062 73.007812 62.761719 63.683594 62.761719 46.449219 Z M 62.761719 46.449219 "/>
<path style=" stroke:none;fill-rule:nonzero;fill:rgb(46.666667%,32.941176%,21.176471%);fill-opacity:1;" d="M 95.34375 46.085938 C 94.289062 46.085938 93.4375 45.230469 93.4375 44.179688 L 93.4375 40.960938 C 93.4375 39.910156 94.289062 39.054688 95.34375 39.054688 C 96.394531 39.054688 97.246094 39.910156 97.246094 40.960938 L 97.246094 44.179688 C 97.246094 45.230469 96.394531 46.085938 95.34375 46.085938 Z M 95.34375 46.085938 "/>
<path style=" stroke:none;fill-rule:nonzero;fill:rgb(46.666667%,32.941176%,21.176471%);fill-opacity:1;" d="M 66.355469 46.085938 C 65.304688 46.085938 64.453125 45.230469 64.453125 44.179688 L 64.453125 40.960938 C 64.453125 39.910156 65.304688 39.054688 66.355469 39.054688 C 67.410156 39.054688 68.261719 39.910156 68.261719 40.960938 L 68.261719 44.179688 C 68.261719 45.230469 67.410156 46.085938 66.355469 46.085938 Z M 66.355469 46.085938 "/>
<path style=" stroke:none;fill-rule:nonzero;fill:rgb(46.666667%,32.941176%,21.176471%);fill-opacity:1;" d="M 82.121094 48.90625 L 80.847656 48.90625 C 79.097656 48.90625 77.671875 47.464844 77.671875 45.695312 L 77.671875 43.21875 C 77.671875 42.167969 78.523438 41.316406 79.578125 41.316406 C 80.628906 41.316406 81.480469 42.167969 81.480469 43.21875 L 81.480469 45.097656 L 82.121094 45.097656 C 83.171875 45.097656 84.027344 45.953125 84.027344 47.003906 C 84.027344 48.054688 83.171875 48.90625 82.121094 48.90625 Z M 82.121094 48.90625 "/>
<path style=" stroke:none;fill-rule:nonzero;fill:rgb(98.431373%,50.980392%,46.27451%);fill-opacity:1;" d="M 81.292969 64.605469 C 76.339844 64.605469 72.308594 60.613281 72.308594 55.703125 C 72.308594 54.78125 73.066406 54.03125 73.996094 54.03125 L 88.585938 54.03125 C 89.519531 54.03125 90.273438 54.78125 90.273438 55.703125 C 90.273438 60.613281 86.242188 64.605469 81.292969 64.605469 Z M 81.292969 64.605469 "/>
<path style=" stroke:none;fill-rule:nonzero;fill:rgb(88.235294%,45.882353%,41.568627%);fill-opacity:1;" d="M 80.371094 55.703125 C 80.371094 54.78125 81.125 54.03125 82.058594 54.03125 L 73.996094 54.03125 C 73.066406 54.03125 72.308594 54.78125 72.308594 55.703125 C 72.308594 60.613281 76.339844 64.605469 81.292969 64.605469 C 82.738281 64.605469 84.109375 64.265625 85.324219 63.65625 C 82.390625 62.191406 80.371094 59.175781 80.371094 55.703125 Z M 80.371094 55.703125 "/>
<path style=" stroke:none;fill-rule:nonzero;fill:rgb(96.862745%,57.647059%,11.764706%);fill-opacity:1;" d="M 88.796875 0 L 80.285156 0 C 64.339844 0 51.410156 12.882812 51.410156 28.769531 L 51.410156 29.199219 C 51.945312 29.609375 52.566406 29.964844 53.304688 30.253906 C 59.421875 32.679688 63.554688 26.523438 66.09375 21.203125 C 64.203125 25.78125 64.265625 30.617188 68.550781 31.871094 C 72.6875 33.078125 76.65625 28.421875 79.480469 23.707031 C 78.511719 27.003906 78.726562 30.503906 83.0625 31.871094 C 92.183594 34.746094 97.570312 21.203125 97.570312 21.203125 C 97.570312 21.203125 102.542969 33.101562 114.152344 28.996094 C 115.65625 28.460938 116.765625 27.546875 117.5625 26.367188 C 116.339844 11.601562 103.933594 0 88.796875 0 Z M 88.796875 0 "/>
<path style=" stroke:none;fill-rule:nonzero;fill:rgb(87.058824%,51.764706%,10.588235%);fill-opacity:1;" d="M 59.386719 29.199219 L 59.386719 28.769531 C 59.386719 12.882812 72.3125 0 88.261719 0 L 80.285156 0 C 64.339844 0 51.410156 12.882812 51.410156 28.769531 L 51.410156 29.199219 C 51.945312 29.609375 52.566406 29.964844 53.304688 30.253906 C 55.824219 31.253906 58.003906 30.796875 59.878906 29.542969 C 59.707031 29.433594 59.539062 29.320312 59.386719 29.199219 Z M 59.386719 29.199219 "/>
<path style=" stroke:none;fill-rule:nonzero;fill:rgb(53.72549%,78.823529%,27.843137%);fill-opacity:1;" d="M 46.550781 67.992188 L 46.550781 65.828125 C 46.550781 63.796875 44.886719 62.148438 42.832031 62.148438 L 32.023438 62.148438 C 29.96875 62.148438 28.304688 63.796875 28.304688 65.828125 L 28.304688 67.992188 Z M 46.550781 67.992188 "/>
<path style=" stroke:none;fill-rule:nonzero;fill:rgb(48.235294%,70.980392%,25.098039%);fill-opacity:1;" d="M 36.414062 67.992188 L 36.414062 65.828125 C 36.414062 63.796875 38.078125 62.148438 40.128906 62.148438 L 32.019531 62.148438 C 29.96875 62.148438 28.304688 63.796875 28.304688 65.828125 L 28.304688 67.992188 Z M 36.414062 67.992188 "/>
<path style=" stroke:none;fill-rule:nonzero;fill:rgb(83.529412%,91.372549%,38.431373%);fill-opacity:1;" d="M 53.136719 97.195312 C 53.136719 98.117188 52.375 98.867188 51.445312 98.867188 L 23.40625 98.867188 C 22.476562 98.867188 21.71875 98.117188 21.71875 97.195312 L 21.71875 69.414062 C 21.71875 68.492188 22.476562 67.738281 23.40625 67.738281 L 51.445312 67.738281 C 52.375 67.738281 53.136719 68.492188 53.136719 69.414062 Z M 53.136719 97.195312 "/>
<path style=" stroke:none;fill-rule:nonzero;fill:rgb(53.72549%,78.823529%,27.843137%);fill-opacity:1;" d="M 41.859375 90.976562 C 41.707031 90.976562 41.554688 90.941406 41.414062 90.863281 L 37.425781 88.800781 L 33.441406 90.863281 C 33.300781 90.941406 33.144531 90.976562 32.992188 90.976562 C 32.792969 90.976562 32.597656 90.914062 32.429688 90.792969 C 32.132812 90.582031 31.984375 90.222656 32.046875 89.867188 L 32.808594 85.492188 L 29.582031 82.394531 C 29.320312 82.144531 29.226562 81.765625 29.339844 81.425781 C 29.453125 81.082031 29.753906 80.832031 30.117188 80.777344 L 34.570312 80.140625 L 36.566406 76.164062 C 36.726562 75.839844 37.0625 75.636719 37.425781 75.636719 C 37.792969 75.636719 38.125 75.839844 38.289062 76.164062 L 40.28125 80.140625 L 44.738281 80.777344 C 45.097656 80.832031 45.398438 81.082031 45.515625 81.425781 C 45.625 81.769531 45.535156 82.144531 45.269531 82.394531 L 42.046875 85.492188 L 42.804688 89.867188 C 42.871094 90.222656 42.722656 90.582031 42.425781 90.792969 C 42.257812 90.914062 42.058594 90.976562 41.859375 90.976562 Z M 41.859375 90.976562 "/>
<path style=" stroke:none;fill-rule:nonzero;fill:rgb(88.235294%,45.882353%,41.568627%);fill-opacity:1;" d="M 12.050781 128.324219 L 12.050781 100.542969 C 12.050781 99.621094 12.8125 98.867188 13.742188 98.867188 L 7.53125 98.867188 C 6.601562 98.867188 5.839844 99.621094 5.839844 100.542969 L 5.839844 128.324219 C 5.839844 129.246094 6.601562 130 7.53125 130 L 13.742188 130 C 12.8125 130 12.050781 129.246094 12.050781 128.324219 Z M 12.050781 128.324219 "/>
<path style=" stroke:none;fill-rule:nonzero;fill:rgb(93.72549%,31.372549%,31.372549%);fill-opacity:1;" d="M 21.546875 121.625 C 21.339844 121.625 21.136719 121.542969 20.988281 121.398438 L 13.964844 114.53125 C 12.265625 112.863281 12.265625 110.160156 13.964844 108.492188 C 14.792969 107.691406 15.886719 107.246094 17.050781 107.246094 C 18.214844 107.246094 19.3125 107.691406 20.136719 108.492188 L 21.546875 109.875 L 22.960938 108.492188 C 23.785156 107.691406 24.878906 107.246094 26.046875 107.246094 C 27.210938 107.246094 28.308594 107.691406 29.132812 108.492188 C 30.832031 110.160156 30.832031 112.867188 29.132812 114.53125 L 22.109375 121.394531 C 21.960938 121.542969 21.757812 121.625 21.546875 121.625 Z M 21.546875 121.625 "/>
<path style=" stroke:none;fill-rule:nonzero;fill:rgb(100%,77.254902%,0.784314%);fill-opacity:1;" d="M 65.660156 104.6875 L 65.585938 104.664062 L 65.503906 104.6875 C 64.765625 104.9375 63.992188 105.0625 63.210938 105.0625 C 62.96875 105.0625 62.722656 105.050781 62.480469 105.027344 L 55.980469 104.375 C 55.023438 104.277344 54.320312 103.417969 54.414062 102.460938 L 54.46875 101.914062 C 54.558594 101.019531 55.304688 100.34375 56.207031 100.34375 C 56.265625 100.34375 56.324219 100.347656 56.382812 100.351562 L 61.332031 100.847656 L 61.421875 99.992188 L 55.4375 99.394531 C 55.023438 99.351562 54.644531 99.167969 54.355469 98.867188 L 37.257812 98.867188 L 37.257812 128.324219 C 37.257812 129.246094 38.019531 130 38.945312 130 L 66.984375 130 C 67.914062 130 68.675781 129.246094 68.675781 128.324219 L 68.675781 105.453125 C 67.660156 105.246094 66.652344 104.996094 65.660156 104.6875 Z M 65.660156 104.6875 "/>
<path style=" stroke:none;fill-rule:nonzero;fill:rgb(89.803922%,69.411765%,0.784314%);fill-opacity:1;" d="M 44.238281 128.324219 L 44.238281 98.867188 L 37.257812 98.867188 L 37.257812 128.328125 C 37.257812 129.246094 38.019531 130 38.945312 130 L 45.929688 130 C 45 130 44.238281 129.246094 44.238281 128.324219 Z M 44.238281 128.324219 "/>
<path style=" stroke:none;fill-rule:nonzero;fill:rgb(98.823529%,85.882353%,40.392157%);fill-opacity:1;" d="M 50.519531 121.535156 C 49.585938 121.535156 48.449219 120.882812 47.984375 120.085938 L 45.535156 115.882812 C 45.070312 115.085938 45.070312 113.785156 45.535156 112.984375 L 47.984375 108.785156 C 48.449219 107.984375 49.585938 107.335938 50.519531 107.335938 L 55.414062 107.335938 C 56.34375 107.335938 57.484375 107.984375 57.945312 108.785156 L 60.394531 112.984375 C 60.859375 113.785156 60.859375 115.085938 60.394531 115.882812 L 57.945312 120.085938 C 57.484375 120.882812 56.34375 121.535156 55.414062 121.535156 Z M 50.519531 121.535156 "/>
<path style=" stroke:none;fill-rule:nonzero;fill:rgb(74.901961%,81.960784%,34.509804%);fill-opacity:1;" d="M 28.425781 97.195312 L 28.425781 69.414062 C 28.425781 68.492188 29.183594 67.738281 30.117188 67.738281 L 23.40625 67.738281 C 22.476562 67.738281 21.71875 68.492188 21.71875 69.414062 L 21.71875 97.195312 C 21.71875 98.117188 22.476562 98.867188 23.40625 98.867188 L 30.117188 98.867188 C 29.183594 98.867188 28.425781 98.117188 28.425781 97.195312 Z M 28.425781 97.195312 "/>
<path style=" stroke:none;fill-rule:nonzero;fill:rgb(100%,72.54902%,54.117647%);fill-opacity:1;" d="M 115.949219 48.890625 C 115.273438 48.890625 114.617188 48.53125 114.273438 47.890625 C 113.773438 46.96875 114.121094 45.808594 115.046875 45.3125 C 117.199219 44.144531 115.945312 41.171875 115.890625 41.046875 C 115.472656 40.082031 115.917969 38.960938 116.882812 38.542969 C 117.847656 38.125 118.96875 38.570312 119.386719 39.535156 C 119.453125 39.6875 120.042969 41.09375 120.09375 42.828125 C 120.167969 45.421875 119.015625 47.492188 116.851562 48.664062 C 116.570312 48.816406 116.257812 48.890625 115.949219 48.890625 Z M 115.949219 48.890625 "/>
<path style=" stroke:none;fill-rule:nonzero;fill:rgb(63.529412%,97.647059%,97.647059%);fill-opacity:1;" d="M 100.816406 81.777344 C 98.183594 80.503906 95 81.59375 93.707031 84.210938 C 89.238281 93.253906 78.949219 97.636719 69.511719 95.085938 C 70.097656 96.246094 70.355469 97.550781 70.226562 98.847656 C 69.933594 101.734375 67.882812 104.039062 65.167969 104.796875 C 79.832031 109.566406 96.246094 102.964844 103.238281 88.8125 C 104.53125 86.203125 103.445312 83.050781 100.816406 81.777344 Z M 100.816406 81.777344 "/>
<path style=" stroke:none;fill-rule:nonzero;fill:rgb(100%,83.529412%,70.196078%);fill-opacity:1;" d="M 54.160156 102.433594 L 54.21875 101.890625 C 54.328125 100.789062 55.308594 99.988281 56.410156 100.097656 L 61.105469 100.570312 L 61.140625 100.222656 L 55.410156 99.644531 C 54.3125 99.535156 53.507812 98.550781 53.621094 97.453125 L 53.671875 96.90625 C 53.78125 95.808594 54.765625 95.007812 55.863281 95.117188 L 61.597656 95.695312 L 61.632812 95.34375 L 56.9375 94.871094 C 55.835938 94.761719 55.03125 93.777344 55.144531 92.679688 L 55.199219 92.132812 C 55.308594 91.035156 56.289062 90.234375 57.390625 90.34375 L 62.714844 90.878906 L 62.726562 90.882812 L 62.53125 90.367188 C 62.109375 89.25 62.675781 88 63.789062 87.582031 L 64.34375 87.371094 C 65.457031 86.953125 66.703125 87.511719 67.128906 88.628906 L 69.214844 94.089844 C 70.164062 95.445312 70.652344 97.117188 70.480469 98.875 C 70.082031 102.816406 66.488281 105.6875 62.457031 105.28125 L 55.957031 104.625 C 54.855469 104.515625 54.050781 103.535156 54.160156 102.433594 Z M 54.160156 102.433594 "/>
</g>
</svg>
