<?xml version="1.0" standalone="no"?>
<!DOCTYPE svg PUBLIC "-//W3C//DTD SVG 20010904//EN"
 "http://www.w3.org/TR/2001/REC-SVG-20010904/DTD/svg10.dtd">
<svg version="1.0" xmlns="http://www.w3.org/2000/svg"
 width="300.000000pt" height="300.000000pt" viewBox="0 0 300.000000 300.000000"
 preserveAspectRatio="xMidYMid meet">
<metadata>
Created by potrace 1.10, written by Peter Selinger 2001-2011
</metadata>
<g transform="translate(0.000000,300.000000) scale(0.100000,-0.100000)"
fill="#000000" stroke="none">
<path d="M1393 2972 c-101 -36 -164 -99 -197 -195 -29 -87 -14 -182 45 -271
27 -40 30 -51 21 -71 l-11 -25 -333 -2 -333 -3 -2 -332 c-1 -183 -4 -337 -8
-343 -11 -18 -38 -11 -114 27 -67 34 -82 38 -150 38 -90 -1 -152 -26 -214 -88
-58 -58 -81 -117 -81 -207 -1 -62 4 -85 27 -132 54 -110 150 -168 276 -168 69
0 137 24 200 71 61 45 60 46 63 -338 l3 -348 348 -3 c288 -2 349 -5 353 -16 3
-8 -13 -45 -35 -81 -22 -37 -43 -87 -47 -112 -29 -198 100 -357 291 -358 60 0
81 5 137 33 161 79 213 255 124 416 -36 67 -44 100 -26 111 5 3 161 6 345 5
l335 0 0 335 0 335 24 11 c21 10 32 6 83 -25 106 -66 215 -69 325 -9 92 50
143 142 143 258 0 167 -131 298 -298 298 -61 0 -77 -5 -153 -44 -67 -34 -89
-41 -102 -33 -15 10 -17 44 -20 357 l-2 347 -347 2 c-410 3 -389 -3 -329 109
71 132 60 267 -29 367 -79 87 -207 122 -312 84z m222 -32 c50 -24 95 -71 127
-133 16 -33 21 -60 22 -124 0 -75 -3 -86 -33 -135 -42 -67 -49 -106 -24 -135
19 -22 22 -22 347 -23 181 0 332 -2 335 -5 4 -2 8 -153 8 -334 1 -285 3 -332
16 -346 25 -24 58 -21 112 13 90 56 205 63 294 18 76 -39 142 -131 146 -204 1
-18 5 -35 7 -38 8 -7 -12 -106 -28 -136 -27 -53 -78 -100 -138 -129 -97 -47
-201 -36 -298 32 -31 23 -81 25 -98 4 -9 -11 -12 -97 -12 -340 l0 -325 -332 0
c-319 0 -334 -1 -351 -20 -17 -19 -17 -22 -1 -65 10 -25 24 -52 32 -59 21 -22
43 -119 38 -168 -11 -104 -67 -180 -169 -229 -139 -67 -295 -16 -370 123 -25
45 -29 64 -29 133 -1 78 1 84 42 151 43 73 51 101 30 122 -9 9 -100 12 -350
12 l-338 0 0 331 c0 208 -4 337 -10 350 -15 26 -56 24 -95 -5 -56 -43 -105
-58 -185 -59 -115 0 -187 45 -246 150 -34 60 -36 68 -33 141 4 68 9 85 39 135
56 94 141 137 259 134 65 -2 84 -9 178 -63 30 -17 35 -18 60 -4 l28 16 5 334
5 335 322 -3 322 -2 15 22 c23 32 20 54 -12 107 -41 66 -52 105 -52 178 0 71
19 118 70 177 79 89 235 119 345 66z"/>
</g>
</svg>
