<?xml version="1.0" encoding="UTF-8"?>
<svg xmlns="http://www.w3.org/2000/svg" xmlns:xlink="http://www.w3.org/1999/xlink" width="130pt" height="130pt" viewBox="0 0 130 130" version="1.1">
<g id="surface1">
<path style=" stroke:none;fill-rule:nonzero;fill:rgb(70.980392%,90.980392%,87.843137%);fill-opacity:1;" d="M 86.765625 128.128906 L 86.765625 99.273438 C 86.765625 89.257812 80 80.828125 70.789062 78.289062 C 75.429688 76.109375 78.640625 71.398438 78.640625 65.933594 C 78.640625 58.394531 72.53125 52.285156 64.996094 52.285156 C 57.457031 52.285156 51.347656 58.394531 51.347656 65.933594 C 51.347656 71.398438 54.558594 76.109375 59.199219 78.289062 C 49.988281 80.828125 43.222656 89.257812 43.222656 99.273438 L 43.222656 128.128906 Z M 86.765625 128.128906 "/>
<path style=" stroke:none;fill-rule:nonzero;fill:rgb(59.215686%,85.882353%,81.960784%);fill-opacity:1;" d="M 70.789062 78.289062 C 75.429688 76.109375 78.640625 71.398438 78.640625 65.933594 C 78.640625 58.394531 72.53125 52.285156 64.996094 52.285156 C 63.199219 52.285156 61.484375 52.632812 59.917969 53.265625 C 64.9375 55.28125 68.484375 60.191406 68.484375 65.933594 C 68.484375 71.398438 65.269531 76.109375 60.632812 78.289062 C 69.84375 80.828125 76.609375 89.257812 76.609375 99.273438 L 76.609375 128.128906 L 86.765625 128.128906 L 86.765625 99.273438 C 86.765625 89.257812 80 80.828125 70.789062 78.289062 Z M 70.789062 78.289062 "/>
<path style=" stroke:none;fill-rule:nonzero;fill:rgb(100%,61.960784%,36.862745%);fill-opacity:1;" d="M 64.996094 128.128906 C 64.996094 118.113281 58.230469 109.683594 49.019531 107.144531 C 53.65625 104.964844 56.871094 100.253906 56.871094 94.789062 C 56.871094 87.25 50.757812 81.140625 43.222656 81.140625 C 35.683594 81.140625 29.574219 87.25 29.574219 94.789062 C 29.574219 100.253906 32.789062 104.964844 37.425781 107.144531 C 28.21875 109.683594 21.449219 118.113281 21.449219 128.128906 Z M 64.996094 128.128906 "/>
<path style=" stroke:none;fill-rule:nonzero;fill:rgb(98.039216%,55.294118%,27.45098%);fill-opacity:1;" d="M 49.019531 107.144531 C 53.65625 104.964844 56.871094 100.253906 56.871094 94.789062 C 56.871094 87.25 50.757812 81.140625 43.222656 81.140625 C 41.425781 81.140625 39.714844 81.488281 38.144531 82.121094 C 43.164062 84.136719 46.714844 89.046875 46.714844 94.789062 C 46.714844 100.253906 43.5 104.964844 38.863281 107.144531 C 48.070312 109.683594 54.839844 118.113281 54.839844 128.128906 L 64.996094 128.128906 C 64.996094 118.113281 58.230469 109.683594 49.019531 107.144531 Z M 49.019531 107.144531 "/>
<path style=" stroke:none;fill-rule:nonzero;fill:rgb(100%,47.058824%,57.647059%);fill-opacity:1;" d="M 108.539062 128.128906 C 108.539062 118.113281 101.769531 109.683594 92.5625 107.144531 C 97.199219 104.964844 100.414062 100.253906 100.414062 94.789062 C 100.414062 87.25 94.304688 81.140625 86.765625 81.140625 C 79.230469 81.140625 73.121094 87.25 73.121094 94.789062 C 73.121094 100.253906 76.332031 104.964844 80.96875 107.144531 C 71.757812 109.683594 64.996094 118.113281 64.996094 128.128906 Z M 108.539062 128.128906 "/>
<path style=" stroke:none;fill-rule:nonzero;fill:rgb(100%,36.862745%,49.803922%);fill-opacity:1;" d="M 92.5625 107.144531 C 97.199219 104.964844 100.414062 100.253906 100.414062 94.789062 C 100.414062 87.25 94.304688 81.140625 86.765625 81.140625 C 84.972656 81.140625 83.257812 81.488281 81.6875 82.121094 C 86.710938 84.136719 90.253906 89.046875 90.253906 94.789062 C 90.253906 100.253906 87.042969 104.964844 82.402344 107.144531 C 91.613281 109.683594 98.378906 118.113281 98.378906 128.128906 L 108.535156 128.128906 C 108.539062 118.113281 101.769531 109.683594 92.5625 107.144531 Z M 92.5625 107.144531 "/>
<path style=" stroke:none;fill-rule:nonzero;fill:rgb(100%,96.862745%,90.980392%);fill-opacity:1;" d="M 82.289062 19.21875 C 82.289062 9.671875 74.542969 1.925781 64.996094 1.925781 C 55.445312 1.925781 47.699219 9.671875 47.699219 19.21875 C 47.699219 27.628906 53.707031 34.636719 61.664062 36.191406 L 64.996094 41.960938 L 68.328125 36.191406 C 76.28125 34.636719 82.289062 27.628906 82.289062 19.21875 Z M 82.289062 19.21875 "/>
<path style=" stroke:none;fill-rule:nonzero;fill:rgb(100%,94.509804%,83.921569%);fill-opacity:1;" d="M 64.996094 1.925781 C 63.226562 1.925781 61.523438 2.195312 59.917969 2.6875 C 66.988281 4.859375 72.132812 11.4375 72.132812 19.21875 C 72.132812 27.003906 66.984375 33.582031 59.917969 35.75 C 60.484375 35.925781 61.066406 36.074219 61.664062 36.191406 L 64.996094 41.960938 L 68.328125 36.191406 C 76.28125 34.636719 82.289062 27.628906 82.289062 19.21875 C 82.289062 9.671875 74.542969 1.925781 64.996094 1.925781 Z M 64.996094 1.925781 "/>
<path style=" stroke:none;fill-rule:nonzero;fill:rgb(100%,84.705882%,56.078431%);fill-opacity:1;" d="M 36.476562 57.066406 C 36.476562 47.519531 28.734375 39.777344 19.183594 39.777344 C 9.632812 39.777344 1.894531 47.519531 1.894531 57.066406 C 1.894531 66.617188 9.632812 74.359375 19.183594 74.359375 C 21.1875 74.359375 23.109375 74.015625 24.902344 73.390625 L 30.175781 75.949219 L 30.175781 70.414062 C 34.023438 67.242188 36.476562 62.441406 36.476562 57.066406 Z M 36.476562 57.066406 "/>
<path style=" stroke:none;fill-rule:nonzero;fill:rgb(100%,90.196078%,72.156863%);fill-opacity:1;" d="M 93.515625 57.066406 C 93.515625 47.519531 101.253906 39.777344 110.804688 39.777344 C 120.355469 39.777344 128.09375 47.519531 128.09375 57.066406 C 128.09375 66.617188 120.355469 74.359375 110.804688 74.359375 C 108.800781 74.359375 106.878906 74.015625 105.085938 73.390625 L 99.8125 75.949219 L 99.8125 70.414062 C 95.964844 67.242188 93.515625 62.441406 93.515625 57.066406 Z M 93.515625 57.066406 "/>
<path style=" stroke:none;fill-rule:nonzero;fill:rgb(0%,0%,0%);fill-opacity:1;" d="M 89.558594 79.488281 C 86.214844 78.878906 82.859375 79.417969 79.933594 80.917969 C 78.421875 79.691406 76.765625 78.644531 75.007812 77.824219 C 78.457031 74.90625 80.546875 70.5625 80.546875 65.933594 C 80.546875 57.359375 73.570312 50.378906 64.996094 50.378906 C 56.417969 50.378906 49.441406 57.359375 49.441406 65.933594 C 49.441406 70.5625 51.53125 74.90625 54.980469 77.824219 C 53.25 78.632812 51.617188 79.65625 50.125 80.859375 C 48.042969 79.824219 45.703125 79.234375 43.222656 79.234375 C 34.648438 79.234375 27.671875 86.210938 27.671875 94.789062 C 27.671875 99.414062 29.757812 103.761719 33.207031 106.675781 C 25.003906 110.515625 19.546875 118.851562 19.546875 128.128906 C 19.546875 130.59375 23.355469 130.59375 23.355469 128.128906 C 23.355469 119.21875 29.347656 111.347656 37.933594 108.980469 C 39.605469 108.519531 39.804688 106.15625 38.238281 105.421875 C 34.132812 103.492188 31.480469 99.320312 31.480469 94.789062 C 31.480469 88.3125 36.75 83.042969 43.222656 83.042969 C 49.699219 83.042969 54.964844 88.3125 54.964844 94.789062 C 54.964844 99.320312 52.3125 103.492188 48.207031 105.421875 C 46.640625 106.15625 46.84375 108.519531 48.511719 108.980469 C 57.09375 111.347656 63.089844 119.21875 63.089844 128.128906 C 63.089844 130.59375 66.898438 130.59375 66.898438 128.128906 C 66.898438 126.144531 67.191406 124.1875 67.765625 122.304688 C 69.738281 115.875 74.988281 110.769531 81.476562 108.980469 C 83.144531 108.519531 83.347656 106.15625 81.78125 105.421875 C 79.46875 104.332031 77.539062 102.488281 76.355469 100.226562 C 74.28125 96.265625 74.679688 91.675781 77.421875 87.945312 C 80.136719 84.25 84.527344 82.445312 88.882812 83.234375 C 91.300781 83.675781 91.980469 79.925781 89.558594 79.488281 Z M 74.351562 85.6875 C 70.785156 90.542969 70.257812 96.792969 72.980469 101.992188 C 73.921875 103.785156 75.210938 105.378906 76.757812 106.679688 C 71.515625 109.144531 67.28125 113.503906 64.984375 118.839844 C 62.714844 113.542969 58.554688 109.164062 53.238281 106.675781 C 56.6875 103.761719 58.773438 99.414062 58.773438 94.789062 C 58.773438 90.132812 56.71875 85.953125 53.46875 83.101562 C 55.355469 81.753906 57.480469 80.738281 59.703125 80.125 C 61.375 79.664062 61.578125 77.304688 60.007812 76.5625 C 55.90625 74.636719 53.253906 70.460938 53.253906 65.933594 C 53.253906 59.457031 58.519531 54.1875 64.996094 54.1875 C 71.46875 54.1875 76.738281 59.457031 76.738281 65.933594 C 76.738281 70.460938 74.085938 74.636719 69.980469 76.5625 C 68.414062 77.304688 68.613281 79.664062 70.285156 80.125 C 72.554688 80.75 74.714844 81.792969 76.632812 83.179688 C 75.800781 83.921875 75.035156 84.757812 74.351562 85.6875 Z M 74.351562 85.6875 "/>
<path style=" stroke:none;fill-rule:nonzero;fill:rgb(0%,0%,0%);fill-opacity:1;" d="M 97.261719 106.972656 C 97.359375 106.6875 97.402344 106.394531 97.390625 106.101562 C 99.230469 104.335938 100.648438 102.105469 101.46875 99.609375 C 102.8125 95.527344 102.441406 91.078125 100.457031 87.402344 C 99.285156 85.234375 95.933594 87.046875 97.105469 89.214844 C 98.597656 91.972656 98.867188 95.328125 97.851562 98.417969 C 96.828125 101.527344 94.605469 104.078125 91.75 105.421875 C 90.132812 106.179688 90.457031 108.480469 92.039062 108.972656 C 100.476562 111.390625 106.75 119.617188 106.636719 128.105469 C 106.601562 130.492188 110.40625 130.664062 110.445312 128.15625 C 110.5625 119.472656 105.121094 111.03125 97.261719 106.972656 Z M 97.261719 106.972656 "/>
<path style=" stroke:none;fill-rule:nonzero;fill:rgb(0%,0%,0%);fill-opacity:1;" d="M 60.433594 37.867188 L 63.34375 42.914062 C 64.066406 44.164062 65.921875 44.164062 66.644531 42.914062 L 69.554688 37.867188 C 78.089844 35.792969 84.191406 28.085938 84.191406 19.21875 C 84.191406 8.636719 75.578125 0.0234375 64.996094 0.0234375 C 54.410156 0.0234375 45.796875 8.636719 45.796875 19.21875 C 45.796875 28.085938 51.898438 35.792969 60.433594 37.867188 Z M 64.996094 3.832031 C 73.480469 3.832031 80.382812 10.734375 80.382812 19.21875 C 80.382812 26.5625 75.160156 32.914062 67.960938 34.324219 C 67.421875 34.425781 66.953125 34.761719 66.679688 35.238281 L 64.996094 38.152344 L 63.308594 35.238281 C 63.035156 34.761719 62.566406 34.425781 62.027344 34.324219 C 54.828125 32.914062 49.605469 26.5625 49.605469 19.21875 C 49.605469 10.734375 56.507812 3.832031 64.996094 3.832031 Z M 64.996094 3.832031 "/>
<path style=" stroke:none;fill-rule:nonzero;fill:rgb(0%,0%,0%);fill-opacity:1;" d="M 29.347656 77.660156 C 30.585938 78.261719 32.082031 77.332031 32.082031 75.949219 L 32.082031 71.285156 C 36.09375 67.644531 38.378906 62.515625 38.378906 57.066406 C 38.378906 46.484375 29.769531 37.875 19.183594 37.875 C 14.59375 37.875 10.152344 39.523438 6.667969 42.519531 C 5.871094 43.207031 5.78125 44.40625 6.46875 45.207031 C 7.15625 46.003906 8.355469 46.09375 9.15625 45.40625 C 11.945312 43.007812 15.503906 41.683594 19.183594 41.683594 C 27.667969 41.683594 34.570312 48.582031 34.570312 57.066406 C 34.570312 61.679688 32.527344 66.007812 28.964844 68.945312 C 28.527344 69.304688 28.269531 69.847656 28.269531 70.414062 L 28.269531 72.90625 L 25.730469 71.675781 C 25.277344 71.453125 24.75 71.421875 24.273438 71.589844 C 22.640625 72.164062 20.925781 72.453125 19.183594 72.453125 C 14.433594 72.453125 10.007812 70.226562 7.042969 66.34375 C 4.074219 62.460938 3.09375 57.601562 4.34375 53.011719 C 4.621094 51.996094 4.023438 50.949219 3.007812 50.671875 C 1.992188 50.390625 0.945312 50.992188 0.667969 52.003906 C -0.898438 57.753906 0.320312 63.820312 4.015625 68.65625 C 7.707031 73.488281 13.234375 76.261719 19.183594 76.261719 C 21.085938 76.261719 22.957031 75.984375 24.761719 75.4375 Z M 29.347656 77.660156 "/>
<path style=" stroke:none;fill-rule:nonzero;fill:rgb(0%,0%,0%);fill-opacity:1;" d="M 110.804688 37.875 C 100.222656 37.875 91.609375 46.484375 91.609375 57.066406 C 91.609375 62.515625 93.894531 67.644531 97.910156 71.285156 L 97.910156 75.949219 C 97.910156 77.332031 99.40625 78.261719 100.644531 77.660156 L 105.226562 75.4375 C 107.03125 75.984375 108.902344 76.261719 110.804688 76.261719 C 121.390625 76.261719 130 67.652344 130 57.070312 C 130 46.484375 121.390625 37.875 110.804688 37.875 Z M 110.804688 72.453125 C 109.0625 72.453125 107.347656 72.164062 105.714844 71.589844 C 105.238281 71.421875 104.710938 71.453125 104.257812 71.675781 L 101.71875 72.90625 L 101.71875 70.414062 C 101.71875 69.847656 101.464844 69.308594 101.023438 68.945312 C 97.464844 66.007812 95.421875 61.679688 95.421875 57.070312 C 95.421875 48.582031 102.320312 41.683594 110.804688 41.683594 C 119.289062 41.683594 126.191406 48.582031 126.191406 57.070312 C 126.191406 65.554688 119.289062 72.453125 110.804688 72.453125 Z M 110.804688 72.453125 "/>
</g>
</svg>
